<?xml version="1.0" encoding="UTF-8" standalone="no" ?>
<!DOCTYPE svg PUBLIC "-//W3C//DTD SVG 1.1//EN" "http://www.w3.org/Graphics/SVG/1.1/DTD/svg11.dtd">
<svg xmlns="http://www.w3.org/2000/svg" xmlns:xlink="http://www.w3.org/1999/xlink" version="1.1" width="1080" height="480" viewBox="0 0 1080 480" xml:space="preserve">
<desc>Created with Fabric.js 5.2.4</desc>
<defs>
</defs>
<g transform="matrix(1 0 0 1 540 240)" id="8d30faa3-0486-4c34-b26f-db53efa88aac"  >
<rect style="stroke: none; stroke-width: 1; stroke-dasharray: none; stroke-linecap: butt; stroke-dashoffset: 0; stroke-linejoin: miter; stroke-miterlimit: 4; fill: rgb(255,255,255); fill-rule: nonzero; opacity: 1; visibility: hidden;" vector-effect="non-scaling-stroke"  x="-540" y="-240" rx="0" ry="0" width="1080" height="480" />
</g>
<g transform="matrix(0 0 0 0 0 0)" id="b10a9a77-c311-4672-b919-749e9c4728f9"  >
</g>
<g transform="matrix(16.69 0 0 5.5 540.15 175.89)" id="d462cbca-3300-4c1f-8883-fe4d1344563d"  >
<rect style="stroke: rgb(0,0,0); stroke-width: 0; stroke-dasharray: none; stroke-linecap: butt; stroke-dashoffset: 0; stroke-linejoin: miter; stroke-miterlimit: 4; fill: rgb(197,225,226); fill-rule: nonzero; opacity: 1;" vector-effect="non-scaling-stroke"  x="-33.085" y="-33.085" rx="0" ry="0" width="66.17" height="66.17" />
</g>
<g transform="matrix(0.78 0 0 0.78 562.34 331.61)"  >
<path style="stroke: none; stroke-width: 1; stroke-dasharray: none; stroke-linecap: butt; stroke-dashoffset: 0; stroke-linejoin: miter; stroke-miterlimit: 4; fill: rgb(255,255,244); fill-rule: nonzero; opacity: 1;" vector-effect="non-scaling-stroke"  transform=" translate(-512, -512)" d="M 11.772 402.878 C 4.132 438.054 0 474.538 0 512 C 0 549.4639999999999 4.134 585.946 11.772 621.122 C 146.334 732.078 479.726 810.666 870 810.666 C 889.568 810.666 908.938 810.402 928.204 810.0120000000001 C 988.43 726.052 1024 623.21 1024 512 C 1024 400.79 988.428 297.946 928.204 213.986 C 908.938 213.59799999999998 889.5699999999999 213.332 870 213.332 C 479.726 213.334 146.33399999999995 291.922 11.772000000000048 402.878 z" stroke-linecap="round" />
</g>
<g transform="matrix(1.14 0 0 0.78 537.92 434.16)"  >
<path style="stroke: none; stroke-width: 1; stroke-dasharray: none; stroke-linecap: butt; stroke-dashoffset: 0; stroke-linejoin: miter; stroke-miterlimit: 4; fill: rgb(255,255,244); fill-rule: nonzero; opacity: 1;" vector-effect="non-scaling-stroke"  transform=" translate(-512, -613.81)" d="M 0 512 C 0 620.192 33.646 720.482 90.92 803.158 C 276.148 855.264 537.204 893.05 836.4459999999999 908.054 C 950.932 814.154 1024 671.622 1024 512 C 1024 443.91200000000003 1010.594 378.986 986.466 319.558 C 571.7860000000001 329.296 214.08000000000004 382.1 2.8780000000000427 457.81 C 0.9708033495856392 475.81050572415336 0.010147378309560473 493.89874307073285 1.1368683772161603e-13 512 z" stroke-linecap="round" />
</g>
<g transform="matrix(0.78 0 0 0.78 391.24 255.81)"  >
<path style="stroke: none; stroke-width: 1; stroke-dasharray: none; stroke-linecap: butt; stroke-dashoffset: 0; stroke-linejoin: miter; stroke-miterlimit: 4; fill: rgb(165,201,202); fill-rule: nonzero; opacity: 1;" vector-effect="non-scaling-stroke"  transform=" translate(-321.81, -351.87)" d="M 352 288 C 334 292 312 334 288 336 C 264 338 220 336 208 352 C 202.24 359.682 194.642 390.062 188.292 416 L 443 416 L 455.334 340.666 C 435.334 326.666 370 284 352 288 z" stroke-linecap="round" />
</g>
<g transform="matrix(1.12 0 0 0.78 563.42 539.12)"  >
<path style="stroke: none; stroke-width: 1; stroke-dasharray: none; stroke-linecap: butt; stroke-dashoffset: 0; stroke-linejoin: miter; stroke-miterlimit: 4; fill: rgb(121,178,180); fill-rule: nonzero; opacity: 1;" vector-effect="non-scaling-stroke"  transform=" translate(-512, -720)" d="M 0 512 C 0 794.77 229.23 1024 512 1024 C 794.77 1024 1024 794.77 1024 512 C 1024 479.172 1020.786 447.11 1014.88 416 L 9.12 416 C 3.214 447.11 0 479.172 0 512 z" stroke-linecap="round" />
</g>
<g transform="matrix(1.17 0 0 0.78 540 584.68)"  >
<path style="stroke: none; stroke-width: 1; stroke-dasharray: none; stroke-linecap: butt; stroke-dashoffset: 0; stroke-linejoin: miter; stroke-miterlimit: 4; fill: rgb(111,148,149); fill-rule: nonzero; opacity: 1;" vector-effect="non-scaling-stroke"  transform=" translate(-511.91, -768)" d="M 511.152 512 C 321.762 512 148.026 553.12 11.889999999999986 621.626 C 60.109999999999985 842.584 250.902 1010.208 483.086 1023.14 C 492.726 1023.458 502.29200000000003 1024 512.034 1024 C 512.162 1024 512.288 1023.99 512.4159999999999 1023.99 C 521.968 1023.986 531.3459999999999 1023.456 540.8 1023.148 C 772.7639999999999 1010.28 963.4259999999999 843.008 1011.932 622.398 C 875.57 553.43 701.25 512 511.152 512 z" stroke-linecap="round" />
</g>
<g transform="matrix(0.78 0 0 0.78 147.68 204.84)"  >
<path style="stroke: none; stroke-width: 1; stroke-dasharray: none; stroke-linecap: butt; stroke-dashoffset: 0; stroke-linejoin: miter; stroke-miterlimit: 4; fill: rgb(255,255,255); fill-rule: nonzero; opacity: 1;" vector-effect="non-scaling-stroke"  transform=" translate(-299.33, -191.88)" d="M 379.334 183.882 C 374.298 183.882 369.538 184.874 364.976 186.312 C 350.526 165.54000000000002 326.556 151.882 299.334 151.882 C 272.112 151.882 248.142 165.54 233.692 186.312 C 229.13 184.87400000000002 224.37 183.882 219.334 183.882 C 192.824 183.882 171.334 205.372 171.334 231.882 L 427.334 231.882 C 427.334 205.372 405.844 183.882 379.334 183.882 z" stroke-linecap="round" />
</g>
<g transform="matrix(0.78 0 0 0.78 419.14 63.32)"  >
<path style="stroke: none; stroke-width: 1; stroke-dasharray: none; stroke-linecap: butt; stroke-dashoffset: 0; stroke-linejoin: miter; stroke-miterlimit: 4; fill: rgb(255,255,255); fill-rule: nonzero; opacity: 1;" vector-effect="non-scaling-stroke"  transform=" translate(-392, -159.18)" d="M 315.334 188.67 C 315.334 165.86999999999998 333.81600000000003 147.38799999999998 356.616 147.38799999999998 C 360.058 147.38799999999998 363.348 147.932 366.542 148.72599999999997 C 377.31399999999996 137.09399999999997 392.58799999999997 129.69599999999997 409.69199999999995 129.69599999999997 C 442.26199999999994 129.69599999999997 468.66599999999994 156.09999999999997 468.66599999999994 188.66999999999996 L 315.33399999999995 188.66999999999996 z" stroke-linecap="round" />
</g>
<g transform="matrix(0.78 0 0 0.78 842.58 111.26)"  >
<path style="stroke: none; stroke-width: 1; stroke-dasharray: none; stroke-linecap: butt; stroke-dashoffset: 0; stroke-linejoin: miter; stroke-miterlimit: 4; fill: rgb(255,255,255); fill-rule: nonzero; opacity: 1;" vector-effect="non-scaling-stroke"  transform=" translate(-655.26, -177.17)" d="M 512 146.942 C 512 127.51400000000001 527.75 111.762 547.18 111.762 C 550.112 111.762 552.9159999999999 112.226 555.64 112.902 C 564.8199999999999 102.988 577.836 96.686 592.412 96.686 C 620.168 96.686 642.668 119.186 642.668 146.942 L 512 146.942 z M 794.666 287.736 C 794.666 268.308 810.416 252.55599999999998 829.846 252.55599999999998 C 832.778 252.55599999999998 835.582 253.01999999999998 838.306 253.69599999999997 C 847.486 243.78199999999998 860.5020000000001 237.47999999999996 875.0780000000001 237.47999999999996 C 902.8340000000001 237.47999999999996 925.3340000000001 259.97999999999996 925.3340000000001 287.736 L 794.666 287.736 z M 385.184 102.622 C 385.184 88.7 396.47 77.414 410.39200000000005 77.414 C 412.494 77.414 414.50200000000007 77.746 416.45400000000006 78.23 C 423.03200000000004 71.126 432.35800000000006 66.61 442.8040000000001 66.61 C 462.69200000000006 66.61 478.8160000000001 82.734 478.8160000000001 102.622 L 385.1840000000001 102.622 z" stroke-linecap="round" />
</g>
<g transform="matrix(0.97 0 0 0.97 954.35 101.23)"  >
<path style="stroke: none; stroke-width: 1; stroke-dasharray: none; stroke-linecap: butt; stroke-dashoffset: 0; stroke-linejoin: miter; stroke-miterlimit: 4; fill: rgb(255,255,255); fill-rule: nonzero; opacity: 1;" vector-effect="non-scaling-stroke"  transform=" translate(-783.33, -222.67)" d="M 696.666 256 C 696.666 230.226 717.5600000000001 209.334 743.3320000000001 209.334 C 747.2220000000001 209.334 750.9420000000001 209.95000000000002 754.5540000000001 210.846 C 766.7300000000001 197.696 783.9960000000001 189.334 803.3320000000001 189.334 C 840.152 189.334 870 219.182 870 256 L 696.6659999999999 256 z" stroke-linecap="round" />
</g>
<g transform="matrix(0.78 0 0 0.78 383.02 435.2)"  >
<path style="stroke: none; stroke-width: 1; stroke-dasharray: none; stroke-linecap: butt; stroke-dashoffset: 0; stroke-linejoin: miter; stroke-miterlimit: 4; fill: rgb(158,198,199); fill-rule: nonzero; opacity: 1;" vector-effect="non-scaling-stroke"  transform=" translate(-311.3, -581.64)" d="M 188.292 416 C 185.64600000000002 426.808 183.21 436.864 181.224 444.154 C 177.8166369767763 456.59193649727234 179.7936034234452 469.8892857028039 186.672 480.798 C 207.476 513.888 251.806 586.19 256 608 C 271 686 304 696 320 736 C 328.304 756.76 371 744 384 736 C 402.346 724.71 432 592 432 592 L 443 416 L 188.292 416 z" stroke-linecap="round" />
</g>
<g transform="matrix(0.78 0 0 0.78 393.53 246.75)"  >
<path style="stroke: none; stroke-width: 1; stroke-dasharray: none; stroke-linecap: butt; stroke-dashoffset: 0; stroke-linejoin: miter; stroke-miterlimit: 4; fill: rgb(255,255,255); fill-rule: nonzero; opacity: 1;" vector-effect="non-scaling-stroke"  transform=" translate(-324.74, -340.25)" d="M 352 288 C 334 292 312 334 288 336 C 264 338 220 336 208 352 C 203.936 357.418 198.964 374.17 194.154 392.648 C 217.374 394.48400000000004 223.738 372.00600000000003 228.666 364 C 234 355.334 263.332 359.334 283.332 356.666 C 303.332 354 301.998 369.332 321.812 374 C 341.624 378.666 345.332 333.334 354.666 324.666 C 364 316 432 352 447.334 363.334 L 452.714 356.674 L 455.334 340.668 C 435.334 326.666 370 284 352 288 z" stroke-linecap="round" />
</g>
<g transform="matrix(1.08 0 0 0.78 649 411.83)"  >
<path style="stroke: none; stroke-width: 1; stroke-dasharray: none; stroke-linecap: butt; stroke-dashoffset: 0; stroke-linejoin: miter; stroke-miterlimit: 4; fill: rgb(165,201,202); fill-rule: nonzero; opacity: 1;" vector-effect="non-scaling-stroke"  transform=" translate(-600, -552)" d="M 816 416 C 816 365.334 772.414 345.762 752 336 C 727.792 324.424 677.3340000000001 328 656 288 C 634.6659999999999 248 619.926 224 608 224 C 585.334 224 529.3340000000001 234.666 496 272 C 468.89 302.364 474.666 330.666 432 352 C 419.156 358.422 384 367.926 384 416 L 384 496 C 384 556 453.334 597.3340000000001 480 608 C 506.666 618.6659999999999 540.422 880 576 880 C 610.6659999999999 880 650.6659999999999 749.3340000000001 672 736 C 693.3340000000001 722.6659999999999 736 720.222 736 656 L 736 512 C 778.636 469.364 816 520 816 416 z" stroke-linecap="round" />
</g>
<g transform="matrix(1.08 0 0 0.78 647.5 486.96)"  >
<path style="stroke: none; stroke-width: 1; stroke-dasharray: none; stroke-linecap: butt; stroke-dashoffset: 0; stroke-linejoin: miter; stroke-miterlimit: 4; fill: rgb(197,225,226); fill-rule: nonzero; opacity: 1;" vector-effect="non-scaling-stroke"  transform=" translate(-600, -648)" d="M 480 608 C 506.666 618.666 540.422 880 576 880 C 610.6659999999999 880 650.6659999999999 749.3340000000001 672 736 C 693.334 722.666 736 720.222 736 656 L 736 512 C 778.636 469.364 816 520 816 416 L 384 416 L 384 496 C 384 556 453.334 597.3340000000001 480 608 z" stroke-linecap="round" />
</g>
<g transform="matrix(1.09 0 0 0.92 540 214.42)"  >
<path style="stroke: none; stroke-width: 1; stroke-dasharray: none; stroke-linecap: butt; stroke-dashoffset: 0; stroke-linejoin: miter; stroke-miterlimit: 4; fill: rgb(255,255,255); fill-rule: nonzero; opacity: 1;" vector-effect="non-scaling-stroke"  transform=" translate(-512, -329)" d="M 752 336 C 727.792 324.424 677.3340000000001 328 656 288 C 634.6659999999999 248 619.926 224 608 224 C 585.334 224 529.3340000000001 234.666 496 272 C 468.89 302.364 474.666 330.666 432 352 C 419.602 358.2 386.716 367.616 384.426 411.476 C 401 389 454 375 487 383 C 508.73199999999997 388.268 494 404.722 519.116 404.722 C 537.984 404.722 536.452 324.508 550 312 C 563 300 577.158 303.154 586 336 C 600 388 688 349 801.3340000000001 371.286 C 786.768 352.144 764.82 342.13 752 336 z M 5.904 434 L 1018.096 434 C 1017.172 427.95 1016.016 421.978 1014.882 416 L 9.12 416 C 7.983999999999999 421.978 6.829999999999999 427.95 5.903999999999999 434 z" stroke-linecap="round" />
</g>
<g transform="matrix(0.78 0 0 0.78 614.71 501.08)"  >
<path style="stroke: none; stroke-width: 1; stroke-dasharray: none; stroke-linecap: butt; stroke-dashoffset: 0; stroke-linejoin: miter; stroke-miterlimit: 4; fill: rgb(158,198,199); fill-rule: nonzero; opacity: 1;" vector-effect="non-scaling-stroke"  transform=" translate(-607.79, -666.05)" d="M 660 581.636 C 660 543.584 630.666 536.098 630.666 564.382 C 630.666 580.7059999999999 607.416 595.68 592.8800000000001 575 C 581.0240000000001 558.134 577.3340000000001 509.178 577.3340000000001 486.666 C 577.3340000000001 442 541.0260000000001 439.63599999999997 541.0260000000001 485.312 C 541.0260000000001 551.998 511.9100000000001 540.36 511.9100000000001 566.666 C 511.91 616 538 658 512 690 C 511.6 690.492 511.322 691.142 510.946 691.666 C 530.938 771.682 553.09 880 576 880 C 610.6659999999999 880 650.6659999999999 749.3340000000001 672 736 C 680.758 730.526 693.102 726.834 704.624 720 C 668 716 660 654.016 660 581.636 z" stroke-linecap="round" />
</g>
<g transform="matrix(0.78 0 0 0.78 406.65 452.03)"  >
<path style="stroke: none; stroke-width: 1; stroke-dasharray: none; stroke-linecap: butt; stroke-dashoffset: 0; stroke-linejoin: miter; stroke-miterlimit: 4; fill: rgb(146,175,176); fill-rule: nonzero; opacity: 1;" vector-effect="non-scaling-stroke"  transform=" translate(-341.46, -603.16)" d="M 371 605 C 371 554.6659999999999 374 525.3340000000001 354 516.6659999999999 C 336.266 508.9819999999999 316.5 533.4999999999999 311.296 511.99999999999994 C 301.73 472.47399999999993 301.334 459.0419999999999 288.528 459.0419999999999 C 275.99800000000005 459.0419999999999 270.99800000000005 478.8359999999999 270.99800000000005 527.9999999999999 C 270.99800000000005 602.1359999999999 278.66400000000004 613.8059999999999 259.13200000000006 622.2839999999999 C 275.204 687.396 305.036 698.586 320 736 C 328.304 756.76 371 744 384 736 C 396.304 728.428 413.66 666.34 423.78 626.202 C 414.666 648 371 649.402 371 605 z" stroke-linecap="round" />
</g>
</svg>